M48
METRIC,0000.00
T01C0.356
T02C0.991
%
T01
X+001400Y+000590
X+001750Y+000590
X+001750Y+000690
X+001750Y+000790
X+001750Y+000890
X+001850Y+000890
X+001950Y+000890
X+001950Y+000790
X+001850Y+000790
X+001850Y+000690
X+001950Y+000690
X+001950Y+000590
X+001850Y+000590
X+001850Y+000490
X+001750Y+000490
X+001750Y+000390
X+001850Y+000390
X+001950Y+000390
X+001950Y+000490
X+002150Y+000510
X+002240Y+000510
X+002240Y+000600
X+002150Y+000600
X+002570Y+000730
X+002640Y+001260
X+002310Y+001790
X+002310Y+001880
X+002220Y+001880
X+002220Y+001790
X+002554Y+002280
X+002290Y+002420
X+002290Y+002510
X+002200Y+002510
X+002200Y+002420
X+001500Y+002470
X+001400Y+002470
X+001400Y+002370
X+001300Y+002370
X+001200Y+002370
X+001100Y+002370
X+001000Y+002370
X+000900Y+002370
X+000800Y+002370
X+000800Y+002270
X+000800Y+002180
X+000900Y+002180
X+000900Y+002270
X+001000Y+002270
X+001000Y+002180
X+001100Y+002180
X+001100Y+002270
X+001200Y+002270
X+001200Y+002180
X+001300Y+002180
X+001300Y+002270
X+001400Y+002270
X+001400Y+002180
X+001500Y+002180
X+001500Y+002270
X+001500Y+002370
X+001290Y+002470
X+001200Y+002470
X+001100Y+002470
X+001000Y+002470
X+000900Y+002470
X+000800Y+002470
X+001020Y+002670
X+001020Y+002760
X+001110Y+002760
X+001110Y+002670
X+000640Y+002190
X+000470Y+002290
X+000210Y+002180
X+000110Y+002180
X+000550Y+001810
X+000550Y+001730
X+000992Y+001354
X+001300Y+001020
X+001050Y+000530
X+000989Y+000301
X+000476Y+000577
X+000273Y+000527
X+000570Y+000770
X+000569Y+001055
X+000110Y+000920
X+000270Y+000140
X+002850Y+002150
T02
X+000143Y+000334
X+000651Y+000435
X+000651Y+000232
T00
M30
