G04 DipTrace 2.3.0.0*
%INTop.gbr*%
%MOMM*%
%ADD13C,0.152*%
%ADD14C,0.6*%
%ADD15C,0.2*%
%ADD16C,0.34*%
%ADD17C,0.4*%
%ADD18C,0.5*%
%ADD19C,0.3*%
%ADD20C,0.35*%
%ADD21C,0.16*%
%ADD23C,1.0*%
%ADD24C,0.787*%
%ADD26C,0.635*%
%ADD27C,0.33*%
%ADD28R,1.1X1.0*%
%ADD29R,1.0X1.1*%
%ADD30R,1.6X3.4*%
%ADD31R,1.35X0.4*%
%ADD32R,1.6X2.1*%
%ADD33R,1.9X1.8*%
%ADD34R,1.9X1.9*%
%ADD38R,0.65X1.05*%
%ADD39R,1.05X0.65*%
%ADD40R,1.6X1.8*%
%ADD41R,0.6X0.3*%
%ADD42R,0.3X0.6*%
%ADD43R,4.5X4.5*%
%ADD46R,0.6X2.3*%
%FSLAX53Y53*%
G04*
G71*
G90*
G75*
G01*
%LNTop*%
%LPD*%
X11700Y11100D2*
D13*
X11200D1*
X10500Y10400D1*
Y5300D1*
X26700Y24500D2*
Y23000D1*
X26900Y22800D1*
X25540D1*
X25200Y26800D2*
D14*
X27650D1*
X3970Y2700D2*
D13*
Y940D1*
X3510Y480D1*
X820D1*
X490Y810D1*
Y7190D1*
X2860Y9560D1*
X7830D1*
X8310Y10040D1*
Y11870D1*
X9240Y12800D1*
X11000D1*
X14000Y5900D2*
X13999Y7790D1*
X12200Y17500D2*
D15*
Y19000D1*
X3800Y13650D2*
D16*
Y11950D1*
D13*
X3690Y11840D1*
X7000Y28800D2*
D17*
X8600D1*
X3690Y11840D2*
D13*
X6560D1*
X7200Y11200D1*
X28600Y24500D2*
D18*
Y22800D1*
X23660Y14250D2*
X24960D1*
D13*
X25160Y14050D1*
X26700Y5400D2*
D18*
Y7100D1*
D13*
X26900Y7300D1*
X3650Y18060D2*
D19*
Y20650D1*
Y22150D1*
X2900Y22900D1*
X5240Y3970D2*
D13*
Y4388D1*
X5700Y4847D1*
Y7700D1*
X5692Y10555D2*
X4975D1*
X3690Y11840D1*
X8600Y28800D2*
D18*
X28300D1*
X28500Y28600D1*
Y24400D1*
D13*
X28600Y24500D1*
X25160Y14050D2*
D18*
Y12040D1*
X26900Y10300D1*
Y7300D1*
X25700D2*
D19*
X26900D1*
X25160Y14050D2*
D17*
X26150D1*
X26400Y13800D1*
Y12600D1*
X2900Y22900D2*
X4700D1*
X28500Y21500D2*
D18*
Y22800D1*
X28600D1*
X6400Y21900D2*
D17*
Y20800D1*
X7000Y20200D1*
X11800D1*
X12200Y19800D1*
Y19000D1*
X13200Y11100D2*
D13*
Y12500D1*
X13100Y12600D1*
Y14100D1*
X12400Y14800D1*
X12100D1*
X11000D1*
X12100D2*
X12300Y15000D1*
Y16200D1*
X12200Y16100D1*
Y17500D1*
X16200D2*
Y16100D1*
X16000Y15900D1*
X12400D1*
X12200Y16100D1*
X3690Y11840D2*
D18*
Y11300D1*
X1330D1*
D13*
X1120Y11090D1*
D18*
Y13750D1*
Y16140D1*
X1110D1*
Y18730D1*
D13*
X1090Y18750D1*
X3650Y18060D2*
D18*
Y18550D1*
X1290D1*
D13*
X1090Y18750D1*
X3650Y20650D2*
X3550Y20550D1*
D20*
X1100D1*
D13*
Y18760D1*
X28600Y5400D2*
Y7300D1*
X17400Y15300D2*
X19800D1*
X20860Y16360D1*
Y20710D1*
X21560Y21410D1*
X27290D1*
X29190Y19510D1*
Y8810D1*
X28610Y8230D1*
Y7310D1*
X28600Y7300D1*
X24800Y3100D2*
D14*
X27650D1*
X2700Y2700D2*
D13*
Y1400D1*
X4760Y5770D2*
Y8240D1*
X5150Y8630D1*
X8220D1*
X9190Y9600D1*
Y11280D1*
X9710Y11800D1*
X11000D1*
Y12300D2*
X9430D1*
X8720Y11590D1*
Y9820D1*
X8000Y9100D1*
X4440D1*
X3970Y8630D1*
Y3970D1*
X8000Y16000D2*
D21*
Y15800D1*
X11000D1*
X12500Y7800D2*
D13*
Y9200D1*
X12800Y9500D1*
X13500D1*
X13700Y9700D1*
Y11100D1*
X12500Y7800D2*
Y6100D1*
X13200Y5400D1*
Y4400D1*
X15506Y7800D2*
Y9194D1*
X15200Y9500D1*
X14400D1*
X14200Y9700D1*
Y11100D1*
X15506Y7800D2*
Y6006D1*
X14900Y5400D1*
Y4400D1*
X3800Y14950D2*
D21*
X5050D1*
X5300Y14700D1*
X6300D1*
X3800Y15600D2*
X4900D1*
X5300Y16000D1*
X6300D1*
X12700Y17500D2*
D13*
Y17990D1*
X12860Y18150D1*
X13640D1*
X13900Y18410D1*
Y19000D1*
X8000Y14700D2*
D21*
X8900D1*
X9500Y15300D1*
X11000D1*
Y14300D2*
D13*
X9100D1*
X8900Y14100D1*
Y13200D1*
X8600Y12900D1*
X7200D1*
X22000Y25100D2*
D23*
X22900D1*
Y24200D1*
X22000D1*
Y25100D1*
D18*
Y26400D1*
D13*
X22400Y26800D1*
X22900Y25100D2*
D18*
Y26300D1*
D13*
X22400Y26800D1*
X22200Y18800D2*
D23*
Y17900D1*
X23100D1*
Y18800D1*
X22200D1*
X23100D2*
D18*
X24210D1*
D13*
X24660Y18350D1*
X23100Y17900D2*
D18*
X24210D1*
D13*
X24660Y18350D1*
X21500Y6000D2*
D23*
X22400D1*
Y5100D1*
X21500D1*
Y6000D1*
Y5100D2*
D18*
Y3600D1*
D13*
X22000Y3100D1*
X22400Y5100D2*
D18*
Y3500D1*
D13*
X22000Y3100D1*
X23660Y15950D2*
X25160D1*
X17400Y14800D2*
X20160D1*
X21310Y15950D1*
X23660D1*
X27460Y15000D2*
D14*
Y18350D1*
X12200Y11100D2*
D13*
Y10400D1*
X11300Y9500D1*
Y1300D1*
X10700Y700D1*
X8500D1*
X8200Y1000D1*
Y1900D1*
X7500D1*
X7100Y1500D1*
X5600D1*
X5300Y1800D1*
Y2640D1*
X5240Y2700D1*
X3800Y16250D2*
D19*
X4750D1*
D17*
X5500Y17000D1*
Y17400D1*
D14*
Y18100D1*
Y17300D2*
D17*
Y17400D1*
X2100Y21800D2*
D18*
X1100D1*
Y22800D1*
D13*
X1200Y22900D1*
D14*
Y25900D1*
X11000Y13800D2*
D13*
X10180D1*
X9920Y13540D1*
X5300Y25900D2*
D18*
Y28800D1*
Y25900D2*
X8200D1*
X8600Y26300D1*
Y27100D1*
X12700Y11100D2*
D13*
Y10500D1*
X13000Y10200D1*
X9890Y3010D2*
Y1910D1*
X9900Y1900D1*
X5300Y25900D2*
X5600D1*
Y22500D1*
X5200Y22100D1*
Y19990D1*
X6160Y19030D1*
X10640D1*
X11050Y18620D1*
Y17740D1*
X11300Y17490D1*
X11690D1*
X11700Y17500D1*
X11000Y16300D2*
X11520D1*
X11690Y16470D1*
Y17490D1*
X2700Y3970D2*
Y5240D1*
X2730Y5270D1*
X10200Y27600D2*
D23*
X11100D1*
Y26700D1*
X10200D1*
Y27600D1*
D17*
Y27000D1*
X9900D1*
D13*
X10200Y26700D1*
Y27600D2*
D17*
X9100D1*
X8600Y27100D1*
Y27200D1*
X9100Y26700D1*
X10200D1*
X16700Y17500D2*
D15*
Y26600D1*
D19*
X15700Y27600D1*
X11100D1*
D24*
X14000Y5900D3*
X5500Y18100D3*
Y17300D3*
X1100Y21800D3*
X2100D3*
X13000Y10200D3*
X10500Y5300D3*
X2700Y1400D3*
X4760Y5770D3*
X9920Y13540D3*
X25540Y22800D3*
X9890Y3010D3*
X2730Y5270D3*
X23100Y18800D3*
Y17900D3*
X22200Y18800D3*
Y17900D3*
X22900Y25100D3*
Y24200D3*
X22000Y25100D3*
Y24200D3*
X22400Y6000D3*
Y5100D3*
X21500Y6000D3*
Y5100D3*
X5700Y7700D3*
X5692Y10555D3*
X25700Y7300D3*
X11100Y27600D3*
Y26700D3*
X10200Y27600D3*
Y26700D3*
X26400Y12600D3*
X28500Y21500D3*
X4700Y22900D3*
X6400Y21900D3*
X8000Y24700D3*
X9000D3*
X10000D3*
X11000D3*
X8000Y23700D3*
X9000D3*
X10000D3*
X11000D3*
X8000Y22700D3*
X9000D3*
X10000D3*
X11000D3*
X8000Y21800D3*
X9000D3*
X10000D3*
X11000D3*
X12000Y24700D3*
X12900D3*
X14000D3*
X15000D3*
X12000Y23700D3*
X13000D3*
X14000D3*
X15000D3*
X12000Y22700D3*
X13000D3*
X14000D3*
X15000D3*
X12000Y21800D3*
X13000D3*
X14000D3*
X15000D3*
X17500Y8900D3*
X18500D3*
X19500D3*
X17500Y7900D3*
X18500D3*
X19500D3*
X17500Y6900D3*
X18500D3*
X19500D3*
X1100Y9200D3*
X17500Y5900D3*
X18500D3*
X19500D3*
X17500Y4900D3*
X18500D3*
X19500D3*
X17500Y3900D3*
X18500D3*
X19500D3*
X2609Y28951D2*
D26*
X3842D1*
X10011D2*
X29519D1*
X2907Y28319D2*
X3594D1*
X16450D2*
X20699D1*
X26908D2*
X29519D1*
X2907Y27688D2*
X3594D1*
X17075D2*
X20699D1*
X28882D2*
X29519D1*
X2907Y27056D2*
X3594D1*
X17641D2*
X20699D1*
X28882D2*
X29519D1*
X2907Y26424D2*
X3594D1*
X17740D2*
X20699D1*
X28882D2*
X29519D1*
X2907Y25793D2*
X3594D1*
X17710D2*
X20699D1*
X2907Y25161D2*
X3594D1*
X17710D2*
X20600D1*
X2907Y24529D2*
X3594D1*
X17710D2*
X20590D1*
X24308D2*
X25471D1*
X17710Y23897D2*
X20629D1*
X24269D2*
X24906D1*
X17710Y23266D2*
X20977D1*
X23931D2*
X24330D1*
X17710Y22634D2*
X24251D1*
X17710Y22002D2*
X20788D1*
X3324Y21371D2*
X4219D1*
X17710D2*
X20153D1*
X28694D2*
X29519D1*
X2798Y20739D2*
X4219D1*
X6181D2*
X6501D1*
X17710D2*
X19875D1*
X2947Y20107D2*
X4219D1*
X6449D2*
X6858D1*
X17710D2*
X19875D1*
X17710Y19476D2*
X19875D1*
X17710Y18844D2*
X19875D1*
X17760Y18213D2*
X19875D1*
X18603Y17581D2*
X19875D1*
X18603Y16949D2*
X19875D1*
X18603Y16317D2*
X19459D1*
X21143Y14422D2*
X22257D1*
X18603Y13791D2*
X22257D1*
X26590D2*
X28210D1*
X5397Y13159D2*
X5796D1*
X18603D2*
X22257D1*
X26590D2*
X28210D1*
X5397Y12528D2*
X5796D1*
X18603D2*
X28210D1*
X5397Y11896D2*
X5796D1*
X18603D2*
X28210D1*
X5397Y11264D2*
X5796D1*
X18603D2*
X28210D1*
X5397Y10633D2*
X5796D1*
X17760D2*
X28210D1*
X25301Y10001D2*
X28210D1*
X481Y9369D2*
X1302D1*
X25410D2*
X28210D1*
X25410Y8737D2*
X27783D1*
X9058Y8106D2*
X9512D1*
X5745Y7474D2*
X9517D1*
X5745Y6843D2*
X9517D1*
X5983Y6211D2*
X9517D1*
X23792D2*
X25441D1*
X7104Y5579D2*
X9229D1*
X23802D2*
X25471D1*
X7769Y4948D2*
X9249D1*
X23792D2*
X25471D1*
X7908Y4316D2*
X9686D1*
X7729Y3684D2*
X8793D1*
X10807Y19933D2*
Y19957D1*
X10650Y19947D1*
X9633Y19957D1*
X7400D1*
X7090Y20016D1*
X6823Y20185D1*
X6638Y20440D1*
X6557Y20800D1*
Y23350D1*
X6519Y23043D1*
Y22500D1*
X6465Y22189D1*
X6271Y21872D1*
X6117Y21717D1*
X6119Y20364D1*
X6544Y19945D1*
X10640Y19949D1*
X5862Y11507D2*
X5857Y13362D1*
X5341Y13357D1*
X5333Y13084D1*
Y10479D1*
X5866D1*
X5857Y10760D1*
X5859Y12593D1*
X2843Y24243D2*
X3656D1*
X3657Y28443D1*
X3905D1*
X3907Y29590D1*
X2595Y29582D1*
X2347D1*
X2451Y29389D1*
X2531Y29082D1*
X2543Y28900D1*
X2506Y28585D1*
X2454Y28446D1*
X2843Y28443D1*
Y24246D1*
X4283Y21557D2*
X3311D1*
X3177Y21193D1*
X2987Y20939D1*
X2740Y20742D1*
X2450Y20614D1*
X2137Y20564D1*
X1822Y20595D1*
X1609Y20674D1*
X1583Y20543D1*
X2883D1*
X2896Y20003D1*
X4283D1*
X4281Y21548D1*
X9943Y29584D2*
Y28917D1*
X10200Y28943D1*
X11100D1*
X11415Y28906D1*
X11712Y28796D1*
X11981Y28612D1*
X12370Y28593D1*
X15700D1*
X16012Y28543D1*
X16299Y28390D1*
X16402Y28302D1*
X17402Y27302D1*
X17587Y27046D1*
X17682Y26744D1*
X17678Y26428D1*
X17643Y26282D1*
Y18633D1*
X17693Y18643D1*
Y17800D1*
X18543Y17793D1*
Y16211D1*
X19414Y16219D1*
X19943Y16743D1*
X19941Y20710D1*
X19995Y21021D1*
X20189Y21338D1*
X20910Y22060D1*
X21169Y22242D1*
X21530Y22329D1*
X24388D1*
X24306Y22726D1*
X24327Y23042D1*
X24429Y23342D1*
X24603Y23606D1*
X24838Y23818D1*
X25120Y23963D1*
X25498Y24029D1*
X25507Y24143D1*
X25537D1*
X25532Y25067D1*
X24233Y25057D1*
X24243Y24200D1*
X24206Y23885D1*
X24096Y23588D1*
X23919Y23325D1*
X23686Y23111D1*
X23409Y22957D1*
X22991Y22860D1*
X22000Y22857D1*
X21685Y22894D1*
X21388Y23004D1*
X21125Y23181D1*
X20911Y23414D1*
X20757Y23691D1*
X20660Y24109D1*
X20657Y25100D1*
X20726Y25523D1*
X20757Y25692D1*
Y28543D1*
X24043Y28533D1*
X25462Y28543D1*
X26843D1*
Y28176D1*
X28818Y28168D1*
X28829Y25868D1*
X29581D1*
X29582Y29582D1*
X9947D1*
X7811Y4036D2*
X7700Y3740D1*
X7523Y3477D1*
X7370Y3337D1*
X7475Y3235D1*
X8682Y3243D1*
X8779Y3552D1*
X8953Y3816D1*
X9188Y4028D1*
X9470Y4173D1*
X9779Y4241D1*
X9868Y4238D1*
X9666Y4387D1*
X9462Y4629D1*
X9325Y4915D1*
X9266Y5226D1*
X9287Y5542D1*
X9389Y5842D1*
X9585Y6126D1*
X9581Y8683D1*
X8870Y7980D1*
X8611Y7798D1*
X8250Y7711D1*
X5670D1*
X5679Y6603D1*
X5910Y6225D1*
X5988Y5918D1*
X5972Y5584D1*
X6238Y5661D1*
X6554Y5688D1*
X6867Y5641D1*
X7160Y5521D1*
X7417Y5335D1*
X7623Y5094D1*
X7766Y4812D1*
X7839Y4504D1*
X7848Y4351D1*
X7811Y4036D1*
X1399Y9397D2*
X419D1*
X418Y8419D1*
X1405Y9404D1*
X25532Y4844D2*
Y5959D1*
X25507Y5957D1*
Y8643D1*
X27791D1*
X27960Y8880D1*
X28276Y9196D1*
X28271Y13840D1*
X26923Y13832D1*
X26528Y13821D1*
Y12882D1*
X25002D1*
X25003Y12857D1*
X22317D1*
Y15023D1*
X21686Y15031D1*
X20810Y14150D1*
X20551Y13968D1*
X20190Y13881D1*
X18543D1*
X18533Y12807D1*
X18543Y12158D1*
Y10807D1*
X17700D1*
X17693Y10447D1*
X24500Y10443D1*
X24810Y10384D1*
X25077Y10215D1*
X25262Y9960D1*
X25343Y9600D1*
Y7200D1*
X25284Y6890D1*
X25115Y6623D1*
X24860Y6438D1*
X24500Y6357D1*
X23696D1*
X23743Y6000D1*
X23736Y4977D1*
X23792Y4843D1*
X25528D1*
X29582Y21457D2*
X28542D1*
X29582Y20420D1*
Y21462D1*
X5858Y11200D2*
D27*
X7200D1*
X2900Y24242D2*
Y22900D1*
X8600Y28800D2*
X9942D1*
X3650Y20002D2*
Y18110D1*
X3690Y11890D2*
X5332D1*
X1090Y20542D2*
Y18800D1*
X1120Y11140D2*
Y9398D1*
X25533Y5400D2*
X26700D1*
X25160Y14050D2*
Y12883D1*
Y14050D2*
X26527D1*
X28600Y25867D2*
Y24500D1*
X26900Y8642D2*
Y7300D1*
X25508D2*
X26900D1*
X23660Y14250D2*
Y12858D1*
X22318Y14250D2*
X23660D1*
X28600Y22800D2*
Y21458D1*
X12281Y26251D2*
D26*
X15924D1*
X12281Y25619D2*
X15924D1*
X12231Y24988D2*
X15924D1*
X7781Y24356D2*
X15924D1*
X7781Y23724D2*
X15924D1*
X7781Y23093D2*
X15924D1*
X7781Y22461D2*
X15924D1*
X7781Y21829D2*
X15924D1*
X7781Y21198D2*
X15924D1*
X7718Y24565D2*
Y21117D1*
X15983D1*
Y26268D1*
X15366Y26885D1*
X12218Y26883D1*
Y25200D1*
X12062Y24932D1*
X11900Y24883D1*
X7718D1*
Y24565D1*
X17281Y8651D2*
X24114D1*
X17281Y8019D2*
X24114D1*
X17281Y7388D2*
X19719D1*
X17281Y6756D2*
X19719D1*
X17281Y6124D2*
X19719D1*
X17281Y5492D2*
X19719D1*
X17281Y4861D2*
X19719D1*
X17281Y4229D2*
X19719D1*
X17281Y3597D2*
X19719D1*
X23865Y9282D2*
X17218D1*
Y3018D1*
X19783D1*
Y7200D1*
X19938Y7468D1*
X20100Y7518D1*
X24183D1*
Y9282D1*
X23865D1*
D28*
X13900Y19000D3*
X12200D3*
D29*
X7200Y12900D3*
Y11200D3*
D28*
X1200Y22900D3*
X2900D3*
X5300Y28800D3*
X7000D3*
D29*
X8600Y27100D3*
Y28800D3*
D30*
X5300Y25900D3*
X1200D3*
D24*
X2700Y2700D3*
Y3970D3*
X3970Y2700D3*
Y3970D3*
X5240Y2700D3*
Y3970D3*
D31*
X3800Y16250D3*
Y15600D3*
Y14950D3*
Y14300D3*
Y13650D3*
D32*
X3650Y18060D3*
X3690Y11840D3*
D33*
X1090Y18750D3*
X1120Y11090D3*
D34*
X1110Y16140D3*
X1120Y13750D3*
D23*
X1200Y28900D3*
X28700Y1300D3*
D38*
X28600Y5400D3*
X26700D3*
X27650Y3100D3*
D39*
X25160Y15950D3*
Y14050D3*
X27460Y15000D3*
D38*
X26700Y24500D3*
X28600D3*
X27650Y26800D3*
D28*
X8200Y1900D3*
X9900D3*
X14900Y4400D3*
X13200D3*
X8000Y16000D3*
X6300D3*
X8000Y14700D3*
X6300D3*
D40*
X24800Y3100D3*
X22000D3*
X27460Y18350D3*
X24660D3*
X25200Y26800D3*
X22400D3*
D28*
X26900Y7300D3*
X28600D3*
D29*
X23660Y14250D3*
Y15950D3*
D28*
X28600Y22800D3*
X26900D3*
D41*
X11000Y16800D3*
Y16300D3*
Y15800D3*
Y15300D3*
Y14800D3*
Y14300D3*
Y13800D3*
Y13300D3*
Y12800D3*
Y12300D3*
Y11800D3*
D42*
X11700Y11100D3*
X12200D3*
X12700D3*
X13200D3*
X13700D3*
X14200D3*
X14700D3*
X15200D3*
X15700D3*
X16200D3*
X16700D3*
D41*
X17400Y11800D3*
Y12300D3*
Y12800D3*
Y13300D3*
Y13800D3*
Y14300D3*
Y14800D3*
Y15300D3*
Y15800D3*
Y16300D3*
Y16800D3*
D42*
X16700Y17500D3*
X16200D3*
X15700D3*
X15200D3*
X14700D3*
X14200D3*
X13700D3*
X13200D3*
X12700D3*
X12200D3*
X11700D3*
D43*
X14200Y14300D3*
D46*
X12500Y7800D3*
X13999Y7790D3*
X15506Y7800D3*
M02*
