G04 DipTrace 2.3.0.0*
%INTopSilk.gbr*%
%MOMM*%
%ADD10C,0.25*%
%ADD15C,0.2*%
%ADD17C,0.4*%
%ADD21C,0.16*%
%ADD37O,0.391X0.392*%
%ADD84C,0.196*%
%FSLAX53Y53*%
G04*
G71*
G90*
G75*
G01*
%LNTopSilk*%
%LPD*%
X14849Y19400D2*
D10*
Y18600D1*
X6800Y13849D2*
X7600D1*
X251Y22500D2*
Y23300D1*
X4352Y28400D2*
Y29200D1*
X9000Y26152D2*
X8200D1*
X4202Y27500D2*
X2298D1*
X4202Y24300D2*
X2298D1*
X795Y5240D2*
X7145D1*
Y1430D1*
X795D1*
Y5240D1*
X2070Y18740D2*
X2720D1*
X2120Y11100D2*
X2731D1*
X3640Y16850D2*
Y16659D1*
Y13300D2*
Y13070D1*
X-20Y18760D2*
X-220D1*
X-250D2*
Y11020D1*
X-260D2*
X10D1*
D37*
X29384Y5774D3*
X29150Y4500D2*
D10*
X26150D1*
Y4000D1*
X29150D1*
Y4500D1*
D37*
X24786Y16734D3*
X26060Y16500D2*
D10*
Y13500D1*
X26560D1*
Y16500D1*
X26060D1*
D37*
X25916Y24126D3*
X26150Y25400D2*
D10*
X29150D1*
Y25900D1*
X26150D1*
Y25400D1*
X23699Y3899D2*
X23101D1*
X23699Y2301D2*
X23101D1*
X26359Y19149D2*
X25761D1*
X26359Y17551D2*
X25761D1*
X24099Y27599D2*
X23501D1*
X24099Y26001D2*
X23501D1*
X10700Y10800D2*
Y11300D1*
Y10800D2*
X11200D1*
X17700D2*
Y11300D1*
Y10800D2*
X17200D1*
X17700Y17800D2*
Y17300D1*
Y17800D2*
X17200D1*
X10700Y17300D2*
X11200Y17800D1*
D17*
X10206Y16850D3*
X11669Y9110D2*
D10*
X16369D1*
Y6470D1*
X11669D1*
Y9110D1*
X5500Y29500D2*
D15*
X6700D1*
X5600Y28100D2*
X6700D1*
X9200Y28600D2*
Y27300D1*
X7900Y28600D2*
Y27400D1*
X6800Y15350D2*
X7550D1*
X13356Y21057D2*
D84*
X13296Y21177D1*
X13174Y21300D1*
X13053Y21360D1*
X12810D1*
X12688Y21300D1*
X12567Y21177D1*
X12506Y21057D1*
X12445Y20874D1*
Y20570D1*
X12506Y20388D1*
X12567Y20266D1*
X12688Y20146D1*
X12810Y20084D1*
X13053D1*
X13174Y20146D1*
X13296Y20266D1*
X13356Y20388D1*
X13749Y21116D2*
X13871Y21177D1*
X14053Y21358D1*
Y20084D1*
X5343Y11883D2*
X5223Y11823D1*
X5101Y11701D1*
X5040Y11580D1*
Y11337D1*
X5100Y11215D1*
X5223Y11094D1*
X5343Y11033D1*
X5526Y10972D1*
X5830D1*
X6012Y11033D1*
X6134Y11094D1*
X6254Y11215D1*
X6316Y11337D1*
Y11580D1*
X6254Y11701D1*
X6134Y11823D1*
X6012Y11883D1*
X5345Y12337D2*
X5284D1*
X5162Y12398D1*
X5102Y12458D1*
X5042Y12580D1*
Y12823D1*
X5102Y12944D1*
X5162Y13004D1*
X5284Y13066D1*
X5405D1*
X5527Y13004D1*
X5708Y12883D1*
X6316Y12276D1*
Y13126D1*
X4285Y21957D2*
X4224Y22077D1*
X4102Y22200D1*
X3982Y22260D1*
X3739D1*
X3617Y22200D1*
X3496Y22077D1*
X3434Y21957D1*
X3374Y21774D1*
Y21470D1*
X3434Y21288D1*
X3496Y21166D1*
X3617Y21046D1*
X3739Y20984D1*
X3982D1*
X4102Y21046D1*
X4224Y21166D1*
X4285Y21288D1*
X4799Y22258D2*
X5466D1*
X5102Y21773D1*
X5285D1*
X5406Y21712D1*
X5466Y21652D1*
X5528Y21470D1*
Y21349D1*
X5466Y21166D1*
X5345Y21044D1*
X5163Y20984D1*
X4980D1*
X4799Y21044D1*
X4739Y21106D1*
X4677Y21227D1*
X6784Y26904D2*
X6664Y26844D1*
X6541Y26721D1*
X6481Y26601D1*
Y26358D1*
X6541Y26236D1*
X6664Y26115D1*
X6784Y26053D1*
X6967Y25993D1*
X7271D1*
X7453Y26053D1*
X7575Y26115D1*
X7695Y26236D1*
X7757Y26358D1*
Y26601D1*
X7695Y26721D1*
X7575Y26844D1*
X7453Y26904D1*
X7757Y27904D2*
X6483D1*
X7332Y27296D1*
Y28207D1*
X10534Y29318D2*
X10474Y29439D1*
X10352Y29561D1*
X10231Y29621D1*
X9988D1*
X9866Y29561D1*
X9745Y29439D1*
X9683Y29318D1*
X9623Y29135D1*
Y28831D1*
X9683Y28650D1*
X9745Y28527D1*
X9866Y28407D1*
X9988Y28345D1*
X10231D1*
X10352Y28407D1*
X10474Y28527D1*
X10534Y28650D1*
X11655Y29620D2*
X11048D1*
X10988Y29074D1*
X11048Y29134D1*
X11231Y29196D1*
X11412D1*
X11594Y29134D1*
X11717Y29013D1*
X11777Y28831D1*
Y28710D1*
X11717Y28527D1*
X11594Y28405D1*
X11412Y28345D1*
X11231D1*
X11048Y28405D1*
X10988Y28467D1*
X10926Y28588D1*
X3297Y29460D2*
X2506D1*
Y28184D1*
Y28852D2*
X2992D1*
X3689Y29216D2*
X3811Y29277D1*
X3994Y29458D1*
Y28184D1*
X3926Y7100D2*
Y6128D1*
X3865Y5946D1*
X3803Y5886D1*
X3683Y5824D1*
X3561D1*
X3440Y5886D1*
X3379Y5946D1*
X3318Y6128D1*
Y6249D1*
X4318Y6856D2*
X4440Y6917D1*
X4622Y7098D1*
Y5824D1*
X2797Y10210D2*
Y9238D1*
X2737Y9056D1*
X2675Y8996D1*
X2555Y8934D1*
X2432D1*
X2312Y8996D1*
X2251Y9056D1*
X2190Y9238D1*
Y9359D1*
X3251Y9905D2*
Y9966D1*
X3312Y10088D1*
X3372Y10148D1*
X3494Y10208D1*
X3737D1*
X3858Y10148D1*
X3918Y10088D1*
X3980Y9966D1*
Y9845D1*
X3918Y9723D1*
X3798Y9542D1*
X3190Y8934D1*
X4040D1*
X24195Y6229D2*
X24074Y6170D1*
X23952Y6048D1*
X23892Y5926D1*
X23830Y5744D1*
Y5440D1*
X23892Y5258D1*
X23952Y5137D1*
X24074Y5015D1*
X24195Y4955D1*
X24438D1*
X24560Y5015D1*
X24681Y5137D1*
X24741Y5258D1*
X24803Y5440D1*
Y5744D1*
X24741Y5926D1*
X24681Y6048D1*
X24560Y6170D1*
X24438Y6229D1*
X24195D1*
X24377Y5198D2*
X24741Y4833D1*
X25195Y5985D2*
X25317Y6047D1*
X25499Y6228D1*
Y4953D1*
X27331Y12572D2*
X27390Y12451D1*
X27512Y12329D1*
X27634Y12268D1*
X27816Y12207D1*
X28120D1*
X28302Y12268D1*
X28423Y12329D1*
X28545Y12451D1*
X28605Y12572D1*
Y12815D1*
X28545Y12937D1*
X28423Y13057D1*
X28302Y13118D1*
X28120Y13180D1*
X27816D1*
X27634Y13118D1*
X27512Y13057D1*
X27390Y12937D1*
X27331Y12815D1*
Y12572D1*
X28362Y12754D2*
X28727Y13118D1*
X27635Y13634D2*
X27575D1*
X27453Y13694D1*
X27392Y13754D1*
X27332Y13876D1*
Y14119D1*
X27392Y14240D1*
X27453Y14300D1*
X27575Y14362D1*
X27696D1*
X27818Y14300D1*
X27999Y14180D1*
X28607Y13572D1*
Y14422D1*
X26693Y29185D2*
X26572Y29126D1*
X26450Y29004D1*
X26389Y28882D1*
X26328Y28699D1*
Y28396D1*
X26389Y28213D1*
X26450Y28093D1*
X26572Y27971D1*
X26693Y27910D1*
X26935D1*
X27058Y27971D1*
X27178Y28093D1*
X27239Y28213D1*
X27300Y28396D1*
Y28699D1*
X27239Y28882D1*
X27178Y29004D1*
X27058Y29126D1*
X26935Y29185D1*
X26693D1*
X26875Y28153D2*
X27239Y27788D1*
X27815Y29183D2*
X28482D1*
X28118Y28698D1*
X28300D1*
X28421Y28637D1*
X28482Y28577D1*
X28543Y28395D1*
Y28274D1*
X28482Y28091D1*
X28361Y27969D1*
X28178Y27909D1*
X27996D1*
X27815Y27969D1*
X27754Y28031D1*
X27693Y28152D1*
X8276Y3652D2*
X8822D1*
X9005Y3714D1*
X9067Y3774D1*
X9127Y3895D1*
Y4017D1*
X9067Y4138D1*
X9005Y4200D1*
X8822Y4260D1*
X8276D1*
Y2984D1*
X8702Y3652D2*
X9127Y2984D1*
X9519Y4016D2*
X9641Y4077D1*
X9824Y4258D1*
Y2984D1*
X13003Y2861D2*
X13549D1*
X13732Y2923D1*
X13794Y2984D1*
X13854Y3104D1*
Y3226D1*
X13794Y3347D1*
X13732Y3409D1*
X13549Y3469D1*
X13003D1*
Y2193D1*
X13429Y2861D2*
X13854Y2193D1*
X14308Y3165D2*
Y3225D1*
X14368Y3347D1*
X14429Y3407D1*
X14551Y3468D1*
X14794D1*
X14914Y3407D1*
X14975Y3347D1*
X15036Y3225D1*
Y3104D1*
X14975Y2982D1*
X14854Y2801D1*
X14246Y2193D1*
X15097D1*
X6203Y17652D2*
X6749D1*
X6932Y17714D1*
X6994Y17774D1*
X7054Y17895D1*
Y18017D1*
X6994Y18138D1*
X6932Y18200D1*
X6749Y18260D1*
X6203D1*
Y16984D1*
X6629Y17652D2*
X7054Y16984D1*
X7568Y18258D2*
X8235D1*
X7871Y17773D1*
X8054D1*
X8175Y17712D1*
X8235Y17652D1*
X8297Y17470D1*
Y17349D1*
X8235Y17166D1*
X8114Y17044D1*
X7932Y16984D1*
X7749D1*
X7568Y17044D1*
X7508Y17106D1*
X7446Y17227D1*
X8173Y13261D2*
X8719D1*
X8902Y13323D1*
X8963Y13384D1*
X9024Y13504D1*
Y13626D1*
X8963Y13747D1*
X8902Y13809D1*
X8719Y13869D1*
X8173D1*
Y12593D1*
X8598Y13261D2*
X9024Y12593D1*
X10024D2*
Y13868D1*
X9416Y13019D1*
X10327D1*
X22553Y1252D2*
X23099D1*
X23282Y1314D1*
X23344Y1374D1*
X23404Y1495D1*
Y1617D1*
X23344Y1738D1*
X23282Y1800D1*
X23099Y1860D1*
X22553D1*
Y584D1*
X22979Y1252D2*
X23404Y584D1*
X24525Y1858D2*
X23918D1*
X23858Y1312D1*
X23918Y1373D1*
X24101Y1435D1*
X24282D1*
X24464Y1373D1*
X24586Y1252D1*
X24647Y1070D1*
Y949D1*
X24586Y766D1*
X24464Y644D1*
X24282Y584D1*
X24101D1*
X23918Y644D1*
X23858Y706D1*
X23796Y827D1*
X22244Y20302D2*
X22790D1*
X22973Y20364D1*
X23034Y20424D1*
X23095Y20545D1*
Y20667D1*
X23034Y20788D1*
X22973Y20850D1*
X22790Y20910D1*
X22244D1*
Y19634D1*
X22669Y20302D2*
X23095Y19634D1*
X24216Y20727D2*
X24155Y20848D1*
X23973Y20908D1*
X23852D1*
X23669Y20848D1*
X23547Y20666D1*
X23487Y20362D1*
Y20059D1*
X23547Y19816D1*
X23669Y19694D1*
X23852Y19634D1*
X23912D1*
X24093Y19694D1*
X24216Y19816D1*
X24276Y19999D1*
Y20059D1*
X24216Y20242D1*
X24093Y20362D1*
X23912Y20423D1*
X23852D1*
X23669Y20362D1*
X23547Y20242D1*
X23487Y20059D1*
X22753Y28952D2*
X23299D1*
X23482Y29014D1*
X23544Y29074D1*
X23604Y29195D1*
Y29317D1*
X23544Y29438D1*
X23482Y29500D1*
X23299Y29560D1*
X22753D1*
Y28284D1*
X23179Y28952D2*
X23604Y28284D1*
X24239D2*
X24847Y29558D1*
X23996D1*
X26704Y9052D2*
X27250D1*
X27432Y9114D1*
X27494Y9174D1*
X27555Y9295D1*
Y9417D1*
X27494Y9538D1*
X27432Y9600D1*
X27250Y9660D1*
X26704D1*
Y8384D1*
X27129Y9052D2*
X27555Y8384D1*
X28250Y9658D2*
X28069Y9598D1*
X28007Y9477D1*
Y9355D1*
X28069Y9235D1*
X28190Y9173D1*
X28433Y9112D1*
X28615Y9052D1*
X28736Y8930D1*
X28796Y8809D1*
Y8627D1*
X28736Y8506D1*
X28675Y8444D1*
X28493Y8384D1*
X28250D1*
X28069Y8444D1*
X28007Y8506D1*
X27947Y8627D1*
Y8809D1*
X28007Y8930D1*
X28129Y9052D1*
X28310Y9112D1*
X28553Y9173D1*
X28675Y9235D1*
X28736Y9355D1*
Y9477D1*
X28675Y9598D1*
X28493Y9658D1*
X28250D1*
X21908Y14083D2*
Y14629D1*
X21846Y14812D1*
X21786Y14874D1*
X21665Y14934D1*
X21543D1*
X21422Y14874D1*
X21361Y14812D1*
X21300Y14629D1*
Y14083D1*
X22576D1*
X21908Y14509D2*
X22576Y14934D1*
X21726Y16117D2*
X21908Y16055D1*
X22030Y15934D1*
X22091Y15752D1*
Y15691D1*
X22030Y15509D1*
X21908Y15388D1*
X21726Y15326D1*
X21665D1*
X21483Y15388D1*
X21362Y15509D1*
X21302Y15691D1*
Y15752D1*
X21362Y15934D1*
X21483Y16055D1*
X21726Y16117D1*
X22030D1*
X22333Y16055D1*
X22516Y15934D1*
X22576Y15752D1*
Y15631D1*
X22516Y15448D1*
X22394Y15388D1*
X26355Y21452D2*
X26901D1*
X27083Y21514D1*
X27145Y21574D1*
X27206Y21695D1*
Y21817D1*
X27145Y21938D1*
X27083Y22000D1*
X26901Y22060D1*
X26355D1*
Y20784D1*
X26780Y21452D2*
X27206Y20784D1*
X27598Y21816D2*
X27720Y21877D1*
X27902Y22058D1*
Y20784D1*
X28659Y22058D2*
X28477Y21998D1*
X28355Y21816D1*
X28294Y21512D1*
Y21330D1*
X28355Y21027D1*
X28477Y20844D1*
X28659Y20784D1*
X28780D1*
X28963Y20844D1*
X29083Y21027D1*
X29145Y21330D1*
Y21512D1*
X29083Y21816D1*
X28963Y21998D1*
X28780Y22058D1*
X28659D1*
X29083Y21816D2*
X28355Y21027D1*
X15579Y19560D2*
Y18649D1*
X15640Y18466D1*
X15762Y18346D1*
X15944Y18284D1*
X16065D1*
X16248Y18346D1*
X16370Y18466D1*
X16430Y18649D1*
Y19560D1*
X16822Y19316D2*
X16944Y19377D1*
X17127Y19558D1*
Y18284D1*
X9445Y8370D2*
X10296Y7094D1*
Y8370D2*
X9445Y7094D1*
X10688Y8126D2*
X10810Y8187D1*
X10993Y8368D1*
Y7094D1*
X19359Y19231D2*
D21*
X18338Y18841D1*
X19359Y18453D1*
X19018Y18599D2*
Y19085D1*
X18678Y19545D2*
X19359D1*
X18872D2*
X18726Y19691D1*
X18678Y19788D1*
Y19933D1*
X18726Y20031D1*
X18872Y20079D1*
X19359D1*
X18338Y20539D2*
X19164D1*
X19309Y20587D1*
X19359Y20685D1*
Y20782D1*
X18678Y20393D2*
Y20733D1*
Y21095D2*
X19164D1*
X19309Y21144D1*
X19359Y21241D1*
Y21387D1*
X19309Y21484D1*
X19164Y21630D1*
X18678D2*
X19359D1*
X18678Y21944D2*
X19359D1*
X18872D2*
X18726Y22090D1*
X18678Y22187D1*
Y22332D1*
X18726Y22430D1*
X18872Y22478D1*
X19359D1*
X18872D2*
X18726Y22624D1*
X18678Y22722D1*
Y22867D1*
X18726Y22965D1*
X18872Y23014D1*
X19359D1*
X18338Y23328D2*
X19359D1*
X18824D2*
X18726Y23425D1*
X18678Y23522D1*
Y23668D1*
X18726Y23765D1*
X18824Y23862D1*
X18970Y23911D1*
X19067D1*
X19213Y23862D1*
X19309Y23765D1*
X19359Y23668D1*
Y23522D1*
X19309Y23425D1*
X19213Y23328D1*
X18678Y24224D2*
X19359D1*
X18970D2*
X18824Y24274D1*
X18726Y24370D1*
X18678Y24468D1*
Y24614D1*
Y25511D2*
X19359D1*
X18824D2*
X18726Y25414D1*
X18678Y25316D1*
Y25171D1*
X18726Y25074D1*
X18824Y24977D1*
X18970Y24928D1*
X19067D1*
X19213Y24977D1*
X19309Y25074D1*
X19359Y25171D1*
Y25316D1*
X19309Y25414D1*
X19213Y25511D1*
X18072Y25824D2*
X19626D1*
X18726Y26721D2*
X19505D1*
X19650Y26673D1*
X19699Y26624D1*
X19747Y26527D1*
Y26381D1*
X19699Y26284D1*
X18872Y26721D2*
X18776Y26624D1*
X18726Y26527D1*
Y26381D1*
X18776Y26284D1*
X18872Y26186D1*
X19018Y26138D1*
X19116D1*
X19261Y26186D1*
X19359Y26284D1*
X19407Y26381D1*
Y26527D1*
X19359Y26624D1*
X19261Y26721D1*
X18338Y27035D2*
X19359D1*
X18678Y27591D2*
X18726Y27494D1*
X18824Y27397D1*
X18970Y27348D1*
X19067D1*
X19213Y27397D1*
X19309Y27494D1*
X19359Y27591D1*
Y27737D1*
X19309Y27835D1*
X19213Y27931D1*
X19067Y27981D1*
X18970D1*
X18824Y27931D1*
X18726Y27835D1*
X18678Y27737D1*
Y27591D1*
Y28294D2*
X19359Y28489D1*
X18678Y28683D1*
X19359Y28877D1*
X18678Y29072D1*
X17000Y2134D2*
Y1113D1*
Y1648D2*
X17098Y1745D1*
X17194Y1794D1*
X17340D1*
X17437Y1745D1*
X17535Y1648D1*
X17583Y1502D1*
Y1405D1*
X17535Y1259D1*
X17437Y1162D1*
X17340Y1113D1*
X17194D1*
X17098Y1162D1*
X17000Y1259D1*
X17897Y1502D2*
X18479D1*
Y1599D1*
X18431Y1697D1*
X18383Y1745D1*
X18285Y1794D1*
X18139D1*
X18043Y1745D1*
X17945Y1648D1*
X17897Y1502D1*
Y1405D1*
X17945Y1259D1*
X18043Y1162D1*
X18139Y1113D1*
X18285D1*
X18383Y1162D1*
X18479Y1259D1*
X18939Y2134D2*
Y1307D1*
X18987Y1162D1*
X19085Y1113D1*
X19182D1*
X18793Y1794D2*
X19133D1*
X20078D2*
Y1113D1*
Y1648D2*
X19982Y1745D1*
X19884Y1794D1*
X19739D1*
X19642Y1745D1*
X19545Y1648D1*
X19496Y1502D1*
Y1405D1*
X19545Y1259D1*
X19642Y1162D1*
X19739Y1113D1*
X19884D1*
X19982Y1162D1*
X20078Y1259D1*
M02*
